<svg width="24" height="25" viewBox="0 0 24 25" fill="none" xmlns="http://www.w3.org/2000/svg">
<path d="M4 6.1377C4 5.87248 4.10536 5.61813 4.29289 5.43059C4.48043 5.24305 4.73478 5.1377 5 5.1377H19C19.2652 5.1377 19.5196 5.24305 19.7071 5.43059C19.8946 5.61813 20 5.87248 20 6.1377C20 6.40291 19.8946 6.65727 19.7071 6.8448C19.5196 7.03234 19.2652 7.1377 19 7.1377H5C4.73478 7.1377 4.48043 7.03234 4.29289 6.8448C4.10536 6.65727 4 6.40291 4 6.1377ZM4 18.1377C4 17.8725 4.10536 17.6181 4.29289 17.4306C4.48043 17.2431 4.73478 17.1377 5 17.1377H19C19.2652 17.1377 19.5196 17.2431 19.7071 17.4306C19.8946 17.6181 20 17.8725 20 18.1377C20 18.4029 19.8946 18.6573 19.7071 18.8448C19.5196 19.0323 19.2652 19.1377 19 19.1377H5C4.73478 19.1377 4.48043 19.0323 4.29289 18.8448C4.10536 18.6573 4 18.4029 4 18.1377ZM5 11.1377C4.73478 11.1377 4.48043 11.2431 4.29289 11.4306C4.10536 11.6181 4 11.8725 4 12.1377C4 12.4029 4.10536 12.6573 4.29289 12.8448C4.48043 13.0323 4.73478 13.1377 5 13.1377H13C13.2652 13.1377 13.5196 13.0323 13.7071 12.8448C13.8946 12.6573 14 12.4029 14 12.1377C14 11.8725 13.8946 11.6181 13.7071 11.4306C13.5196 11.2431 13.2652 11.1377 13 11.1377H5Z" fill="#EDEDED"/>
</svg>
