<svg width="41" height="40" viewBox="0 0 41 40" fill="none" xmlns="http://www.w3.org/2000/svg">
<path d="M38.1875 15.4375C37.625 15.625 35.9375 16.1875 34.5 16.375C33.9375 16.4375 33.4375 16.375 32.9375 16.3125C32.5 16.1875 32.125 15.9375 32 15.5L31.875 15.9375C31 15.4375 30.3125 14.4375 30.1875 12.75C29.4375 -0.4375 23.0625 3.5 23.0625 3.5C23.0625 3.5 22.5 1.25 16.8125 1.25C8 1.25 3.1875 6.875 3.1875 14.3125V33.25C3.1875 33.25 35.125 38.6875 39.25 14.9375C39.25 15 38.8125 15.1875 38.1875 15.4375Z" fill="#EDEDED"/>
<path d="M6.8125 21C6.8125 21 4.8125 20.5 4.8125 17.5625C4.8125 15.25 6.3125 14.8125 6.3125 14.8125C11.75 14.8125 21.75 7.8125 21.75 7.8125C21.75 7.8125 23.875 14 27.0625 14.8125C27.0625 14.8125 28.625 15.125 28.625 17.5625C28.625 20.5 26.5625 21 26.5625 21C26.5625 25.4375 20.4375 30.8125 16.6875 30.8125C13.0625 30.75 6.8125 25.4375 6.8125 21Z" fill="#373737"/>
</svg>
