<svg width="41" height="40" viewBox="0 0 41 40" fill="none" xmlns="http://www.w3.org/2000/svg">
<path d="M31.6063 19.9938H9.3875C6.99063 19.9938 5.03125 22.0813 5.03125 24.6344C5.03125 27.1875 6.99063 29.275 9.3875 29.275H31.6094C34.0063 29.275 35.9656 27.1875 35.9656 24.6344C35.9656 22.0813 34.0031 19.9938 31.6063 19.9938Z" fill="#EDEDED"/>
<path d="M20.5 3.87183C13.425 3.87183 6.87183 11.4375 6.87183 22.3281C6.87183 33.1593 13.625 38.5125 20.5 38.5125C27.375 38.5125 34.1281 33.1593 34.1281 22.3281C34.1281 11.4406 27.575 3.87183 20.5 3.87183Z" fill="#373737"/>
<path d="M20.5 1.4375H20.4875C2.53746 1.53437 6.21559 22.0344 6.21559 22.0344C6.21559 22.0344 7.02184 24.15 7.38746 25.0813C7.44059 25.2156 7.63434 25.2 7.66559 25.0594C8.04996 23.3438 9.42809 17.2656 10.125 15.4188C10.5343 14.3281 11.6656 13.6969 12.8093 13.9031C14.5687 14.2219 17.3718 14.6156 20.4625 14.6156H20.5312C23.6218 14.6156 26.425 14.2219 28.1843 13.9031C29.3281 13.6969 30.4593 14.3281 30.8687 15.4188C31.5625 17.2594 32.9312 23.3031 33.3187 25.0438C33.35 25.1844 33.5468 25.2 33.6 25.0656L34.7781 22.0375C34.775 22.0344 38.4531 1.53437 20.5 1.4375Z" fill="#373737"/>
<path d="M34.775 22.0344C34.775 22.0344 38.4531 1.53125 20.5 1.4375H20.4875C20.2093 1.44062 19.9343 1.44687 19.6656 1.45625C19.1312 1.47812 18.6156 1.51875 18.1187 1.57813C18.1125 1.57813 18.1093 1.57813 18.1031 1.58125C18.0687 1.58438 18.0375 1.59063 18 1.59688C2.89059 3.49688 6.21559 22.0344 6.21559 22.0344L7.39059 25.0656C7.44371 25.2 7.63746 25.1875 7.66871 25.0469C8.05621 23.3156 9.43121 17.2625 10.125 15.4188C10.5343 14.3281 11.6656 13.6969 12.8093 13.9031C14.5687 14.2219 17.3718 14.6156 20.4625 14.6156H20.5312C23.6218 14.6156 26.425 14.2219 28.1843 13.9031C29.3281 13.6969 30.4593 14.3281 30.8687 15.4188C31.5656 17.2688 32.9437 23.3594 33.325 25.0656C33.3562 25.2062 33.55 25.2219 33.6 25.0875C33.9656 24.1594 34.775 22.0344 34.775 22.0344Z" fill="#EDEDED"/>
</svg>
