<svg width="41" height="40" viewBox="0 0 41 40" fill="none" xmlns="http://www.w3.org/2000/svg">
<path d="M20.6781 0.896851C7.86248 0.896851 7.9656 12.7469 7.9656 12.9344C7.9656 20.6094 8.5531 31.45 11.625 35.7156C12.8437 37.4062 15.1969 37.5 15.1969 37.5L20.5 37.4937L25.8031 37.5031C25.8031 37.5031 28.1562 37.4094 29.375 35.7187C32.4469 31.4531 33.0344 20.6125 33.0344 12.9375C33.0312 12.7469 33.4937 0.896851 20.6781 0.896851Z" fill="#373737"/>
<path d="M20.6781 0.896851C7.86248 0.896851 7.9656 12.7469 7.9656 12.9344C7.9656 20.6094 8.5531 31.45 11.625 35.7156C12.8437 37.4062 15.1969 37.5 15.1969 37.5L20.5 37.4937L25.8031 37.5031C25.8031 37.5031 28.1562 37.4094 29.375 35.7187C32.4469 31.4531 33.0344 20.6125 33.0344 12.9375C33.0312 12.7469 33.4937 0.896851 20.6781 0.896851Z" fill="#EDEDED"/>
<path d="M20.5001 4.65942C15.1251 4.65942 10.147 8.6563 10.147 17.1313C10.147 23.9407 14.3626 27.9657 18.0313 29.2657C18.9063 29.5751 19.7501 29.7313 20.5001 29.7313C21.2438 29.7313 22.0845 29.5782 22.9532 29.2719C26.6282 27.9782 30.8532 23.95 30.8532 17.1344C30.8532 8.6563 25.8751 4.65942 20.5001 4.65942Z" fill="#373737"/>
<path d="M20.6781 0.896851C7.86248 0.896851 7.9656 12.7469 7.9656 12.9344C7.9656 15.3594 8.02498 18.1 8.19998 20.8469L10.3 20.8406C10.2812 19.9281 10.9219 14.2875 12.825 13.8594C19.8125 12.2906 23.7656 8.58123 23.7656 8.58123C24.7937 10.8281 28.0094 13.0156 29.1625 13.85C30.1094 14.5344 30.4 19.6469 30.3812 20.8437H32.7906C32.7906 20.8281 32.7969 20.8125 32.7969 20.7937C32.9719 18.0594 33.0281 15.3375 33.0281 12.9281C33.0312 12.7469 33.4937 0.896851 20.6781 0.896851Z" fill="#373737"/>
<path d="M20.6781 0.896851C7.86248 0.896851 7.9656 12.7469 7.9656 12.9344C7.9656 15.3594 8.02498 18.1 8.19998 20.8469L10.3 20.8406C10.2812 19.9281 10.9219 14.2875 12.825 13.8594C19.8125 12.2906 23.7656 8.58123 23.7656 8.58123C24.7937 10.8281 28.0094 13.0156 29.1625 13.85C30.1094 14.5344 30.4 19.6469 30.3812 20.8437H32.7906C32.7906 20.8281 32.7969 20.8125 32.7969 20.7937C32.9719 18.0594 33.0281 15.3375 33.0281 12.9281C33.0312 12.7469 33.4937 0.896851 20.6781 0.896851Z" fill="#EDEDED"/>
</svg>
