<svg width="41" height="41" viewBox="0 0 41 41" fill="none" xmlns="http://www.w3.org/2000/svg">
<path fill-rule="evenodd" clip-rule="evenodd" d="M18.1014 24.9945C19.9505 17.1621 21.5205 11.6708 25.2013 4.4064C26.248 2.35792 27.2248 0.653725 27.7133 0.154516C28.2017 -0.344693 28.1843 0.395514 27.7831 1.94478C26.3875 7.17787 25.6897 10.4313 25.0792 15.8538C24.5907 20.1229 24.0848 24.5125 24.3814 28.816C24.4861 30.503 24.7826 31.9834 24.7826 33.3605C24.7826 34.7377 24.4861 36.0287 23.7708 36.9066C23.0556 37.7846 21.9043 38.2493 20.7355 38.2838C19.5667 38.3182 18.398 37.9395 17.613 37.3198C16.828 36.7001 16.4442 35.8394 16.357 34.8065C16.2523 33.7737 16.4268 32.5687 16.7233 31.0883C17.0199 29.6079 17.4385 27.8692 18.1189 25.0117L18.1014 24.9945Z" fill="#EDEDED"/>
<path fill-rule="evenodd" clip-rule="evenodd" d="M30.8359 17.4891C31.1674 16.3702 31.6209 14.821 32.214 13.2373C32.8072 11.6708 33.5573 10.0871 34.2899 8.6411C35.04 7.21233 35.7901 5.92127 36.5926 4.75071C37.4125 3.58015 38.2847 2.51287 39.0174 1.72102C39.75 0.929175 40.3606 0.395538 40.2559 0.619321C40.1512 0.843105 39.3139 1.82431 38.5115 3.01208C37.709 4.18264 36.924 5.54256 36.1739 7.16068C35.4238 8.76159 34.7086 10.6207 34.255 12.2905C33.8015 13.9775 33.5747 15.4751 33.4351 16.6112C33.2956 17.7474 33.2258 18.5048 33.2433 19.1761C33.2433 19.8475 33.3305 20.45 33.313 21.0008C33.2782 21.5517 33.1386 22.0509 32.8246 22.378C32.5106 22.705 32.057 22.86 31.586 22.8427C31.115 22.8255 30.6615 22.6362 30.3649 22.378C30.0684 22.1025 29.9288 21.7582 29.9114 21.3451C29.8939 20.932 29.9812 20.45 30.1382 19.8819C30.2952 19.2966 30.487 18.6081 30.8185 17.4891H30.8359Z" fill="#EDEDED"/>
<path fill-rule="evenodd" clip-rule="evenodd" d="M9.0651 19.0384C8.87321 18.2465 8.62899 17.1448 8.26266 16.0259C7.91377 14.907 7.44277 13.7708 6.98922 12.738C6.51822 11.7052 6.04722 10.7756 5.52389 9.9321C5.00055 9.08861 4.42489 8.31397 3.93645 7.72869C3.448 7.14341 3.04678 6.74749 3.11656 6.90241C3.18634 7.05734 3.72711 7.78033 4.233 8.64104C4.75633 9.48453 5.24478 10.4657 5.71577 11.6191C6.16933 12.7724 6.60544 14.0807 6.8671 15.2857C7.12877 16.4735 7.21599 17.5407 7.26833 18.3326C7.32066 19.1244 7.3381 19.6581 7.30321 20.1401C7.26833 20.6048 7.1811 21.018 7.1811 21.4139C7.1811 21.7926 7.26833 22.1541 7.46021 22.3951C7.66955 22.6361 7.98355 22.7566 8.31499 22.7738C8.64643 22.7738 8.96043 22.6705 9.18721 22.4984C9.39654 22.3263 9.51865 22.0853 9.5361 21.7926C9.57099 21.5 9.51865 21.1729 9.43143 20.7598C9.34421 20.3466 9.23954 19.8646 9.04765 19.0728L9.0651 19.0384Z" fill="#EDEDED"/>
</svg>
