<svg width="41" height="40" viewBox="0 0 41 40" fill="none" xmlns="http://www.w3.org/2000/svg">
<path d="M31.4656 18.3157H9.53125C7.03125 18.3157 4.98438 20.4938 4.98438 23.1594C4.98438 25.825 7.02812 28.0032 9.53125 28.0032H31.4688C33.9688 28.0032 36.0156 25.825 36.0156 23.1594C36.0156 20.4938 33.9688 18.3157 31.4656 18.3157Z" fill="#EDEDED"/>
<path d="M20.5341 1.18433H20.5216C3.55599 1.2812 6.49662 22.4062 6.49662 22.4062C6.49662 22.4062 7.52162 38.15 19.8935 38.6687C19.9372 38.6718 19.9841 38.6718 20.0247 38.6749C20.1872 38.6812 20.356 38.6843 20.5247 38.6843H20.531C20.7029 38.6843 20.8716 38.6812 21.0404 38.6749C21.081 38.6749 21.1247 38.6718 21.1654 38.6687C33.5279 38.1562 34.3622 22.6687 34.3622 22.6687C34.3622 22.6687 38.1154 1.28433 20.5341 1.18433Z" fill="#312D2D"/>
<path d="M20.5341 1.18433H20.5216C3.55599 1.2812 6.49662 22.4062 6.49662 22.4062C6.49662 22.4062 7.55912 38.6843 20.5279 38.6843C33.4966 38.6843 34.3622 22.6687 34.3622 22.6687C34.3622 22.6687 38.1154 1.28433 20.5341 1.18433Z" fill="#EDEDED"/>
<path d="M31.334 27.875C30.8121 29.375 29.9559 30.1469 28.6028 30.4375C26.3903 31.0125 25.7246 28.0094 20.4934 28.0094C15.2621 28.0094 14.1684 30.925 11.984 30.4219C10.259 30.05 9.64652 28.1938 9.27465 26.8188C8.37152 23.4563 9.26215 15.4657 9.57152 14.6344C9.77911 14.0704 10.1792 13.5978 10.7011 13.3C11.2231 13.0021 11.8335 12.8981 12.4246 13.0063C14.2934 13.35 17.2715 13.7719 20.5559 13.7719H20.6278C23.9121 13.7719 26.8903 13.3469 28.759 13.0063C29.3502 12.8985 29.9604 13.0026 30.4822 13.3005C31.0041 13.5983 31.4042 14.0706 31.6121 14.6344C31.9496 15.5407 32.8778 23.425 31.334 27.875Z" fill="#373737"/>
<path d="M9.87496 10.7812C9.4474 12.0639 8.83329 18.5416 8.93745 20.1562L14.0937 15.3124L27.8437 15.9374L31.9062 16.5624C31.8541 14.8437 31.7812 12.4375 30.6562 9.68746C29.25 6.24996 25.5 7.34374 24.7187 9.21868C24.1518 10.5793 24.5625 12.5 22.8437 13.2812C19.7731 14.677 17.2187 13.125 16.75 10.7812C16.2812 8.43745 14.4062 7.3437 12.8437 7.6562C11.2812 7.9687 10.4999 8.9062 9.87496 10.7812Z" fill="#373737"/>
<path d="M20.5753 33.5718C22.1815 33.5718 23.9628 32.5968 24.8347 31.85C25.0659 31.6562 24.9253 31.2781 24.6222 31.2781H16.4972C16.194 31.2781 16.0565 31.6562 16.2847 31.85C17.1722 32.5968 18.9722 33.5718 20.5753 33.5718Z" fill="#373737"/>
</svg>
