<svg width="34" height="37" viewBox="0 0 34 37" fill="none" xmlns="http://www.w3.org/2000/svg">
<path fill-rule="evenodd" clip-rule="evenodd" d="M2.18228 23.6888C3.93479 16.2655 5.42277 11.0611 8.91126 4.17622C9.90325 2.23475 10.8291 0.619576 11.292 0.146444C11.755 -0.326687 11.7384 0.374853 11.3582 1.84319C10.0355 6.80291 9.37419 9.88642 8.79553 15.0256C8.3326 19.0717 7.85314 23.232 8.13421 27.3107C8.23341 28.9096 8.51447 30.3126 8.51447 31.6178C8.51447 32.923 8.2334 34.1466 7.55555 34.9787C6.87769 35.8107 5.7865 36.2513 4.67878 36.2839C3.57106 36.3165 2.46334 35.9576 1.71935 35.3702C0.975362 34.7829 0.611633 33.9672 0.528967 32.9883C0.429769 32.0094 0.5951 30.8673 0.876163 29.4643C1.15723 28.0612 1.55402 26.4134 2.19881 23.7051L2.18228 23.6888Z" fill="#EDEDED"/>
<path fill-rule="evenodd" clip-rule="evenodd" d="M12.6076 23.6888C14.3601 16.2655 15.8481 11.0611 19.3366 4.17622C20.3285 2.23475 21.2544 0.619576 21.7173 0.146444C22.1803 -0.326687 22.1637 0.374853 21.7835 1.84319C20.4608 6.80291 19.7995 9.88642 19.2208 15.0256C18.7579 19.0717 18.2784 23.232 18.5595 27.3107C18.6587 28.9096 18.9398 30.3126 18.9398 31.6178C18.9398 32.923 18.6587 34.1466 17.9808 34.9787C17.303 35.8107 16.2118 36.2513 15.1041 36.2839C13.9964 36.3165 12.8886 35.9576 12.1446 35.3702C11.4007 34.7829 11.0369 33.9672 10.9543 32.9883C10.8551 32.0094 11.0204 30.8673 11.3015 29.4643C11.5825 28.0612 11.9793 26.4134 12.6241 23.7051L12.6076 23.6888Z" fill="#EDEDED"/>
<path fill-rule="evenodd" clip-rule="evenodd" d="M23.9809 23.6888C25.7334 16.2655 27.2214 11.0611 30.7098 4.17622C31.7018 2.23475 32.6277 0.619576 33.0906 0.146444C33.5535 -0.326687 33.537 0.374853 33.1567 1.84319C31.8341 6.80291 31.1728 9.88642 30.5941 15.0256C30.1312 19.0717 29.6517 23.232 29.9328 27.3107C30.032 28.9096 30.3131 30.3126 30.3131 31.6178C30.3131 32.923 30.032 34.1466 29.3541 34.9787C28.6763 35.8107 27.5851 36.2513 26.4774 36.2839C25.3696 36.3165 24.2619 35.9576 23.5179 35.3702C22.7739 34.7829 22.4102 33.9672 22.3276 32.9883C22.2284 32.0094 22.3937 30.8673 22.6747 29.4643C22.9558 28.0612 23.3526 26.4134 23.9974 23.7051L23.9809 23.6888Z" fill="#EDEDED"/>
</svg>
