<svg width="41" height="40" viewBox="0 0 41 40" fill="none" xmlns="http://www.w3.org/2000/svg">
<path d="M20.5625 5.5625C20.5 5.5625 20.5625 5.5625 20.5625 5.5625H20.4375C4.8125 5.5625 1.75 11.0625 1.75 19.6875L2.3125 25.5625H38.75L39.3125 19.6875C39.25 11.0625 36.1875 5.5625 20.5625 5.5625Z" fill="#373737"/>
<path d="M37.0625 23C31.375 20.75 35.8125 14.5625 36 13.3125C36 13.3125 34.6875 1.25 20.5 1.25C6.3125 1.25 5 13.3125 5 13.3125C5.1875 14.5625 9.6875 20.75 3.9375 23C3.9375 23 1.8125 22.75 1.8125 25.3125C1.8125 28.375 4 27.875 4 27.875C4 32.5625 8.625 38.75 20.5 38.75C32.375 38.75 37 32.5625 37 27.875C37 27.875 39.1875 28.375 39.1875 25.3125C39.1875 22.75 37.0625 23 37.0625 23Z" fill="#EDEDED"/>
<path d="M25.9375 33.0625C26.0625 33.0625 26.125 32.5 26.125 32.25C26.125 30.625 23.625 29.25 20.5 29.25C17.375 29.25 14.875 30.6875 14.875 32.3125C14.875 32.5 14.9375 33.0625 15 33.0625H25.9375ZM11.5 6.125C12.9375 5.6875 14.4375 5.1875 15.9375 4.875C17.4375 4.5625 19 4.3125 20.5 4.25C22.0625 4.1875 23.625 4.3125 25.125 4.625C26.625 4.9375 28.125 5.4375 29.5 6.125C28 5.875 26.5 5.625 25 5.5625C23.5 5.4375 22 5.4375 20.5625 5.5C19.0625 5.5625 17.5625 5.6875 16.0625 5.8125C14.5625 5.9375 13.0625 6.125 11.5 6.125ZM9.5625 8.75C11.375 8.3125 13.125 7.8125 14.9375 7.5C16.75 7.1875 18.625 6.9375 20.5 6.875C22.375 6.8125 24.25 6.9375 26.0625 7.25C27.9375 7.5625 29.75 8 31.4375 8.75C29.625 8.5 27.8125 8.3125 25.9375 8.1875C24.125 8.0625 22.3125 8.0625 20.5 8.125C18.6875 8.1875 16.875 8.3125 15.0625 8.4375C13.25 8.5625 11.4375 8.8125 9.5625 8.75Z" fill="#373737"/>
</svg>
