<svg width="24" height="24" viewBox="0 0 24 24" fill="none" xmlns="http://www.w3.org/2000/svg">
<path fill-rule="evenodd" clip-rule="evenodd" d="M4.79831 3.38715C4.26798 2.87095 3.40817 2.87095 2.87786 3.38715C2.34753 3.90335 2.34753 4.74026 2.87786 5.25646L10.0796 12.2664L2.39774 19.7436C1.86742 20.2598 1.86742 21.0967 2.39774 21.6129C2.92806 22.129 3.78787 22.129 4.3182 21.6129L12 14.1357L19.6819 21.6129C20.2121 22.129 21.072 22.129 21.6023 21.6129C22.1326 21.0967 22.1326 20.2598 21.6023 19.7436L13.9205 12.2664L21.1221 5.25646C21.6525 4.74026 21.6525 3.90335 21.1221 3.38715C20.5918 2.87095 19.732 2.87095 19.2017 3.38715L12 10.397L4.79831 3.38715Z" fill="#373737"/>
</svg>
