<svg width="103" height="83" viewBox="0 0 103 83" fill="none" xmlns="http://www.w3.org/2000/svg">
<rect x="18" y="21.1433" width="62" height="43" rx="3" fill="white"/>
<path fill-rule="evenodd" clip-rule="evenodd" d="M18.483 21.8663C19.3302 21.0191 20.4792 20.5432 21.6772 20.5432H77.8231C79.0211 20.5432 80.1702 21.0191 81.0173 21.8663C81.8645 22.7135 82.3404 23.8625 82.3404 25.0605V61.9564C82.3404 63.1544 81.8645 64.3035 81.0173 65.1506C80.1702 65.9978 79.0211 66.4737 77.8231 66.4737H21.6772C20.4792 66.4737 19.3302 65.9978 18.483 65.1506C17.6358 64.3035 17.1599 63.1544 17.1599 61.9564V25.0605C17.1599 23.8625 17.6358 22.7135 18.483 21.8663ZM21.6772 23.1612C21.1735 23.1612 20.6904 23.3613 20.3342 23.7175C19.978 24.0737 19.7779 24.5568 19.7779 25.0605V61.9564C19.7779 62.4601 19.978 62.9432 20.3342 63.2994C20.6904 63.6556 21.1735 63.8557 21.6772 63.8557H77.8231C78.3268 63.8557 78.8099 63.6556 79.1661 63.2994C79.5223 62.9432 79.7224 62.4601 79.7224 61.9564V25.0605C79.7224 24.5568 79.5223 24.0737 79.1661 23.7175C78.8099 23.3613 78.3268 23.1612 77.8231 23.1612H21.6772Z" fill="#373737"/>
<path fill-rule="evenodd" clip-rule="evenodd" d="M17.2811 28.491C17.5846 27.8348 18.3626 27.5489 19.0187 27.8524L49.7505 42.0662L80.4822 27.8524C81.1384 27.5489 81.9163 27.8348 82.2198 28.491C82.5233 29.1471 82.2374 29.9251 81.5812 30.2285L50.3 44.6965C49.9514 44.8577 49.5496 44.8577 49.201 44.6965L17.9197 30.2285C17.2636 29.9251 16.9777 29.1471 17.2811 28.491Z" fill="#373737"/>
<g clip-path="url(#clip0_2575_718)">
<path d="M75.577 8.93273L75.8897 6.44678L78.1151 5.29545C78.176 5.264 78.2248 5.21325 78.2539 5.15116C78.3271 4.99542 78.2601 4.80918 78.1043 4.73501L75.8364 3.66995L75.4285 1.19783C75.4174 1.12967 75.384 1.0678 75.3343 1.0209C75.2737 0.9642 75.1931 0.933864 75.1102 0.936554C75.0273 0.939245 74.9488 0.974743 74.8921 1.03525L73.1778 2.86244L70.7004 2.4861C70.6428 2.47727 70.5838 2.48476 70.5302 2.50772C70.4766 2.53069 70.4305 2.56821 70.3972 2.61604C70.3638 2.66386 70.3446 2.72007 70.3415 2.7783C70.3385 2.83652 70.3519 2.89443 70.3801 2.94546L71.5884 5.14044L70.4652 7.38019C70.4342 7.44135 70.4248 7.51185 70.4378 7.579C70.4703 7.74833 70.6336 7.85947 70.8029 7.82692L73.2641 7.35575L75.0472 9.11579C75.096 9.16369 75.1591 9.19471 75.2276 9.20316C75.399 9.22624 75.5549 9.10409 75.577 8.93273Z" fill="#373737"/>
</g>
<g clip-path="url(#clip1_2575_718)">
<path d="M99.4682 25.4544L98.3622 23.2062L99.5877 21.0207C99.6213 20.9609 99.6342 20.8917 99.6243 20.8238C99.5998 20.6535 99.4414 20.5349 99.2705 20.5586L96.7906 20.9163L95.0904 19.0759C95.0436 19.0251 94.9817 18.9918 94.9144 18.9799C94.8326 18.9659 94.7486 18.9849 94.6808 19.0327C94.6131 19.0806 94.5671 19.1534 94.5529 19.2351L94.1261 21.7039L91.85 22.7521C91.797 22.7764 91.7519 22.8151 91.7197 22.8637C91.6876 22.9124 91.6697 22.969 91.6682 23.0273C91.6666 23.0856 91.6814 23.1432 91.7109 23.1935C91.7404 23.2438 91.7834 23.2848 91.835 23.3119L94.0514 24.4806L94.345 26.9689C94.3527 27.0371 94.3837 27.1011 94.4315 27.1501C94.5518 27.2736 94.7493 27.2766 94.8728 27.1563L96.6692 25.4093L99.1264 25.8986C99.1935 25.9118 99.2633 25.903 99.3252 25.8724C99.481 25.7974 99.544 25.6097 99.4682 25.4544Z" fill="#373737"/>
</g>
<g clip-path="url(#clip2_2575_718)">
<path d="M18.4506 9.02621L18.1396 6.55413L15.9267 5.40922C15.8661 5.37794 15.8175 5.32747 15.7886 5.26573C15.7158 5.11086 15.7825 4.92566 15.9374 4.8519L18.1927 3.79278L18.5983 1.33446C18.6093 1.26668 18.6425 1.20515 18.692 1.15851C18.7522 1.10213 18.8323 1.07196 18.9148 1.07464C18.9972 1.07731 19.0753 1.11261 19.1317 1.17278L20.8364 2.98978L23.3 2.61554C23.3573 2.60675 23.4159 2.6142 23.4692 2.63704C23.5225 2.65988 23.5683 2.69719 23.6015 2.74475C23.6347 2.79231 23.6538 2.84821 23.6568 2.90611C23.6599 2.96401 23.6466 3.02159 23.6185 3.07234L22.4169 5.25507L23.5339 7.48233C23.5647 7.54314 23.5741 7.61325 23.5611 7.68003C23.5288 7.84841 23.3664 7.95893 23.198 7.92656L20.7506 7.45803L18.9774 9.20825C18.9289 9.25588 18.8661 9.28673 18.798 9.29513C18.6276 9.31808 18.4726 9.19661 18.4506 9.02621Z" fill="#373737"/>
</g>
<g clip-path="url(#clip3_2575_718)">
<path d="M3.46368 24.3546L4.56351 22.1189L3.34489 19.9457C3.31148 19.8862 3.29868 19.8174 3.30848 19.7499C3.33285 19.5805 3.4904 19.4625 3.66032 19.4861L6.12639 19.8418L7.81711 18.0117C7.86359 17.9611 7.92518 17.928 7.99214 17.9163C8.07345 17.9023 8.15697 17.9212 8.22436 17.9688C8.29175 18.0163 8.3375 18.0887 8.35155 18.17L8.77605 20.6251L11.0394 21.6674C11.0921 21.6915 11.137 21.73 11.169 21.7784C11.2009 21.8268 11.2187 21.8831 11.2202 21.9411C11.2218 21.9991 11.207 22.0563 11.1777 22.1063C11.1484 22.1563 11.1056 22.1971 11.0543 22.2241L8.85029 23.3862L8.55829 25.8607C8.55064 25.9285 8.51988 25.9922 8.47235 26.0408C8.35271 26.1637 8.15631 26.1667 8.03348 26.047L6.24708 24.3098L3.80358 24.7964C3.73687 24.8095 3.66749 24.8007 3.60595 24.7703C3.45099 24.6957 3.38833 24.509 3.46368 24.3546Z" fill="#373737"/>
</g>
<defs>
<clipPath id="clip0_2575_718">
<rect width="10" height="10" fill="white" transform="translate(78.8545) rotate(88.9)"/>
</clipPath>
<clipPath id="clip1_2575_718">
<rect width="10" height="10" fill="white" transform="translate(97.293 16.1914) rotate(55.5364)"/>
</clipPath>
<clipPath id="clip2_2575_718">
<rect width="9.94422" height="9.94422" fill="white" transform="matrix(-0.0191974 0.999816 0.999816 0.0191974 15.1914 0.143311)"/>
</clipPath>
<clipPath id="clip3_2575_718">
<rect width="9.94422" height="9.94422" fill="white" transform="matrix(-0.565883 0.824486 0.824486 0.565883 5.62695 15.1433)"/>
</clipPath>
</defs>
</svg>
