<svg width="41" height="40" viewBox="0 0 41 40" fill="none" xmlns="http://www.w3.org/2000/svg">
<path fill-rule="evenodd" clip-rule="evenodd" d="M18.9545 24.3849C20.7332 16.7435 22.2434 11.3861 25.7839 4.29892C26.7907 2.30041 27.7304 0.637781 28.2003 0.150748C28.6701 -0.336285 28.6533 0.385863 28.2674 1.89735C26.925 7.0028 26.2538 10.1769 25.6665 15.4671C25.1966 19.6321 24.71 23.9146 24.9953 28.1132C25.096 29.759 25.3812 31.2033 25.3812 32.5469C25.3812 33.8904 25.096 35.15 24.408 36.0065C23.72 36.863 22.6125 37.3164 21.4883 37.35C20.364 37.3836 19.2397 37.0141 18.4846 36.4095C17.7295 35.8049 17.3604 34.9652 17.2765 33.9576C17.1758 32.9499 17.3436 31.7743 17.6289 30.33C17.9141 28.8857 18.3168 27.1895 18.9713 24.4016L18.9545 24.3849Z" fill="#EDEDED"/>
<path fill-rule="evenodd" clip-rule="evenodd" d="M31.9093 25.829C32.0603 24.7038 32.2449 23.1252 32.5805 21.5297C32.9161 19.9342 33.3691 18.2884 33.8558 16.7937C34.3424 15.299 34.8626 13.9387 35.4666 12.6959C36.0539 11.4364 36.7419 10.2943 37.3124 9.40425C37.8997 8.53095 38.3864 7.92636 38.3192 8.14468C38.2521 8.3798 37.6145 9.45464 37.0272 10.6974C36.4399 11.957 35.9029 13.3845 35.4331 15.0471C34.9632 16.7098 34.5773 18.5907 34.3927 20.2869C34.2081 21.9831 34.2417 23.461 34.2753 24.5695C34.3088 25.6779 34.3592 26.4168 34.4766 27.0718C34.5941 27.7268 34.7619 28.281 34.8122 28.8184C34.8626 29.3558 34.8122 29.8597 34.5605 30.2291C34.3256 30.5986 33.9061 30.8169 33.453 30.8673C33.0168 30.9177 32.5469 30.8169 32.2281 30.5986C31.9093 30.3803 31.7247 30.0612 31.6408 29.6749C31.5569 29.2719 31.5737 28.8016 31.6408 28.2306C31.6911 27.6428 31.7918 26.9542 31.9261 25.829H31.9093Z" fill="#EDEDED"/>
<path fill-rule="evenodd" clip-rule="evenodd" d="M7.8624 25.6276C8.01342 24.5024 8.198 22.9237 8.5336 21.3283C8.8692 19.7328 9.32226 18.087 9.80888 16.5923C10.2955 15.0976 10.8157 13.7373 11.4198 12.4945C12.0071 11.2349 12.695 10.0929 13.2656 9.20284C13.8529 8.32954 14.3395 7.72494 14.2724 7.94327C14.2052 8.17839 13.5676 9.25322 12.9803 10.496C12.393 11.7556 11.856 13.1831 11.3862 14.8457C10.9164 16.5083 10.5304 18.3893 10.3458 20.0855C10.1613 21.7817 10.1948 23.2596 10.2284 24.368C10.2619 25.4765 10.3123 26.2154 10.4297 26.8704C10.5472 27.5254 10.715 28.0796 10.7653 28.617C10.8157 29.1544 10.7653 29.6582 10.5136 30.0277C10.2787 30.3972 9.85922 30.6155 9.40616 30.6659C8.96988 30.7163 8.50004 30.6155 8.18122 30.3972C7.8624 30.1789 7.67782 29.8598 7.59392 29.4735C7.51002 29.0704 7.5268 28.6002 7.59392 28.0292C7.64426 27.4414 7.74494 26.7528 7.87918 25.6276H7.8624Z" fill="#EDEDED"/>
<path fill-rule="evenodd" clip-rule="evenodd" d="M17.3434 21.429C16.7561 21.1603 15.7828 21.0596 14.7593 21.0931C13.7357 21.1099 12.645 21.2611 11.9906 21.6306C11.3529 22 11.1683 22.5878 11.6382 22.9405C12.108 23.2932 13.2491 23.4108 14.3398 23.5115C15.4305 23.6123 16.4708 23.6795 17.1252 23.5283C17.7797 23.3772 18.0314 22.9909 18.0817 22.571C18.1153 22.1512 17.9307 21.6977 17.3434 21.429Z" fill="#EDEDED"/>
<path fill-rule="evenodd" clip-rule="evenodd" d="M23.1828 9.15236C21.2699 9.28672 20.2463 9.43787 19.9275 9.9417C19.6086 10.4455 19.9946 11.302 21.7733 11.8394C23.552 12.3769 26.7234 12.6288 28.4685 12.0578C30.1968 11.4868 30.4821 10.1096 29.2236 9.48825C27.9483 8.86686 25.1293 9.01801 23.2164 9.15236H23.1828Z" fill="#EDEDED"/>
<path fill-rule="evenodd" clip-rule="evenodd" d="M11.722 14.2579C10.4299 14.3082 9.10428 14.3586 8.43308 14.8457C7.76188 15.3327 7.76188 16.2564 8.56732 16.7266C9.35598 17.1969 10.9501 17.2304 12.2421 16.7098C13.5342 16.1892 14.5242 15.1144 14.4068 14.6273C14.2725 14.1235 13.014 14.2075 11.722 14.2579Z" fill="#EDEDED"/>
<path fill-rule="evenodd" clip-rule="evenodd" d="M6.57081 24.9223C5.42977 24.62 3.29871 24.62 2.27512 25.023C1.25154 25.4261 1.35222 26.2322 1.93952 26.6521C2.52682 27.0719 3.61753 27.0887 4.70823 26.988C5.79893 26.8872 6.88963 26.6857 7.35947 26.2658C7.82931 25.846 7.69507 25.2414 6.55403 24.9223H6.57081Z" fill="#EDEDED"/>
<path fill-rule="evenodd" clip-rule="evenodd" d="M30.0792 23.4779C29.0556 23.2764 27.4783 23.7802 27.0588 24.2673C26.6393 24.7711 27.344 25.2581 28.3676 25.4597C29.3912 25.6612 30.7336 25.5604 31.1699 25.0566C31.5894 24.5528 31.1028 23.6627 30.0792 23.4611V23.4779Z" fill="#EDEDED"/>
</svg>
