<svg width="14" height="14" viewBox="0 0 14 14" fill="none" xmlns="http://www.w3.org/2000/svg">
<path d="M7.00007 5.06055C5.8532 5.06055 4.91726 5.99649 4.91726 7.14336C4.91726 8.29024 5.8532 9.22617 7.00007 9.22617C8.14695 9.22617 9.08289 8.29024 9.08289 7.14336C9.08289 5.99649 8.14695 5.06055 7.00007 5.06055ZM13.2469 7.14336C13.2469 6.28086 13.2548 5.42617 13.2063 4.56524C13.1579 3.56524 12.9298 2.67774 12.1985 1.94649C11.4657 1.21367 10.5798 0.98711 9.57976 0.938673C8.71726 0.890235 7.86257 0.898048 7.00164 0.898048C6.13914 0.898048 5.28445 0.890235 4.42351 0.938673C3.42351 0.98711 2.53601 1.21524 1.80476 1.94649C1.07195 2.6793 0.845387 3.56524 0.796949 4.56524C0.748512 5.42774 0.756324 6.28242 0.756324 7.14336C0.756324 8.0043 0.748512 8.86055 0.796949 9.72149C0.845387 10.7215 1.07351 11.609 1.80476 12.3402C2.53757 13.073 3.42351 13.2996 4.42351 13.348C5.28601 13.3965 6.1407 13.3887 7.00164 13.3887C7.86414 13.3887 8.71882 13.3965 9.57976 13.348C10.5798 13.2996 11.4673 13.0715 12.1985 12.3402C12.9313 11.6074 13.1579 10.7215 13.2063 9.72149C13.2563 8.86055 13.2469 8.00586 13.2469 7.14336ZM7.00007 10.348C5.22664 10.348 3.79539 8.9168 3.79539 7.14336C3.79539 5.36992 5.22664 3.93867 7.00007 3.93867C8.77351 3.93867 10.2048 5.36992 10.2048 7.14336C10.2048 8.9168 8.77351 10.348 7.00007 10.348ZM10.336 4.55586C9.92195 4.55586 9.58757 4.22149 9.58757 3.80742C9.58757 3.39336 9.92195 3.05899 10.336 3.05899C10.7501 3.05899 11.0844 3.39336 11.0844 3.80742C11.0846 3.90574 11.0653 4.00312 11.0277 4.09398C10.9902 4.18484 10.935 4.2674 10.8655 4.33692C10.796 4.40645 10.7134 4.46157 10.6226 4.49914C10.5317 4.53671 10.4343 4.55598 10.336 4.55586Z" fill="black"/>
</svg>
