<svg width="14" height="11" viewBox="0 0 14 11" fill="none" xmlns="http://www.w3.org/2000/svg">
<path d="M13.3337 2.80198V8.39331C13.3337 9.35998 12.5503 10.1433 11.5837 10.1433H2.41699C1.95286 10.1433 1.50774 9.95894 1.17956 9.63075C0.851367 9.30256 0.666992 8.85744 0.666992 8.39331V2.80198L6.79966 6.17531C6.92466 6.24398 7.07633 6.24398 7.20099 6.17531L13.3337 2.80164V2.80198ZM11.5837 0.143311C12.0405 0.143353 12.4792 0.322028 12.8061 0.641169C13.1329 0.96031 13.322 1.39461 13.333 1.85131L7.00033 5.33464L0.667659 1.85098L0.668326 1.82098C0.686993 1.36973 0.879394 0.943171 1.2053 0.630503C1.5312 0.317834 1.96536 0.143269 2.41699 0.143311H11.5837Z" fill="black"/>
</svg>
