<svg width="26" height="20" viewBox="0 0 26 20" fill="none" xmlns="http://www.w3.org/2000/svg">
<path d="M2.28635 8.64203C1.51929 8.64203 0.897461 9.25002 0.897461 10C0.897461 10.75 1.51929 11.358 2.28635 11.358V8.64203ZM25.4906 10.9602C26.0331 10.4299 26.0331 9.57009 25.4906 9.03978L16.6518 0.397738C16.1094 -0.132579 15.23 -0.132579 14.6877 0.397738C14.1452 0.928056 14.1452 1.78787 14.6877 2.31818L22.5444 10L14.6877 17.6818C14.1452 18.2121 14.1452 19.0719 14.6877 19.6022C15.23 20.1326 16.1094 20.1326 16.6518 19.6022L25.4906 10.9602ZM2.28635 11.358H24.5086V8.64203H2.28635V11.358Z" fill="#EDEDED"/>
</svg>
