<svg width="16" height="17" viewBox="0 0 16 17" fill="none" xmlns="http://www.w3.org/2000/svg">
<path d="M3.51454 7.79116C3.20772 7.79116 2.95898 8.03436 2.95898 8.33435C2.95898 8.63434 3.20772 8.87754 3.51454 8.87754V7.79116ZM12.7963 8.71844C13.0132 8.50631 13.0132 8.16239 12.7963 7.95026L9.26073 4.49345C9.04377 4.28132 8.69202 4.28132 8.47506 4.49345C8.25809 4.70557 8.25809 5.0495 8.47506 5.26162L11.6177 8.33435L8.47506 11.4071C8.25809 11.6192 8.25809 11.9631 8.47506 12.1752C8.69202 12.3874 9.04377 12.3874 9.26073 12.1752L12.7963 8.71844ZM3.51454 8.87754H12.4034V7.79116H3.51454V8.87754Z" fill="#373737"/>
</svg>
