<svg width="24" height="24" viewBox="0 0 24 24" fill="none" xmlns="http://www.w3.org/2000/svg">
<path d="M20.3151 19.5751L15.9311 15.2562C17.0791 14.0074 17.7845 12.3559 17.7845 10.5386C17.784 6.65103 14.5856 3.5 10.64 3.5C6.69441 3.5 3.49609 6.65103 3.49609 10.5386C3.49609 14.4261 6.69441 17.5772 10.64 17.5772C12.3448 17.5772 13.9084 16.9868 15.1366 16.0054L19.5376 20.3414C19.752 20.5529 20.1002 20.5529 20.3146 20.3414C20.5295 20.1299 20.5295 19.7866 20.3151 19.5751ZM10.64 16.4942C7.3016 16.4942 4.59529 13.8278 4.59529 10.5386C4.59529 7.24936 7.3016 4.58293 10.64 4.58293C13.9785 4.58293 16.6848 7.24936 16.6848 10.5386C16.6848 13.8278 13.9785 16.4942 10.64 16.4942Z" fill="#EDEDED"/>
</svg>
