<svg width="14" height="14" viewBox="0 0 14 14" fill="none" xmlns="http://www.w3.org/2000/svg">
<path d="M6.99967 0.476562C3.31801 0.476562 0.333008 3.46156 0.333008 7.14323C0.333008 10.8249 3.31801 13.8099 6.99967 13.8099C10.6813 13.8099 13.6663 10.8249 13.6663 7.14323C13.6663 3.46156 10.6813 0.476562 6.99967 0.476562ZM10.2741 5.04378L9.17967 10.1993C9.09912 10.5649 8.88134 10.6538 8.57745 10.4816L6.91079 9.25378L6.10745 10.0282C6.06809 10.0792 6.01758 10.1204 5.9598 10.1489C5.90202 10.1773 5.8385 10.1921 5.77412 10.1921H5.77134L5.88967 8.49545L8.97856 5.70545C9.1119 5.58712 8.94856 5.5199 8.77134 5.63823L4.95523 8.04156L3.31079 7.52823C2.95523 7.41545 2.94523 7.17267 3.38579 6.99823L9.81134 4.52156C10.1102 4.41267 10.3702 4.59267 10.2736 5.04434L10.2741 5.04378Z" fill="black"/>
</svg>
