<svg width="123" height="186" viewBox="0 0 123 186" fill="none" xmlns="http://www.w3.org/2000/svg">
<path fill-rule="evenodd" clip-rule="evenodd" d="M54.732 0.31289C50.6239 0.684266 43.0758 2.00297 39.0317 3.05597C19.6225 8.10933 6.70924 21.7191 1.56174 42.5462C0.798476 45.6349 0.00123125 50.2207 6.60265e-06 51.5311C-0.000911883 52.4201 0.0930812 52.5294 0.856343 52.5294C1.32814 52.5294 6.31306 53.0799 11.9345 53.7529C17.5559 54.426 22.1775 54.9442 22.2047 54.9048C22.232 54.8655 22.5577 53.2436 22.9288 51.3007C25.0153 40.3702 29.8584 31.248 36.3166 26.0847C44.0809 19.8772 54.0204 17.5851 64.7741 19.5228C71.4389 20.7235 77.2321 23.8229 82.4944 29.0031C93.5009 39.8382 95.1854 55.349 86.6175 66.9704C84.4845 69.8637 79.0577 75.3751 72.8656 80.9365C63.0244 89.7752 57.8845 95.2186 54.2372 100.666C51.159 105.262 48.4302 111.924 47.3424 117.497C46.2001 123.349 46.097 125.084 46.1181 138.078L46.1392 150.979L56.5937 151.06L67.0485 151.141L67.0651 149.831C67.074 149.111 67.1912 145.816 67.3259 142.509L67.5703 136.495L69.0337 134.061C72.0035 129.122 73.5955 127.48 75.4153 127.48C75.8519 127.48 78.9356 128.18 82.2678 129.034C89.0285 130.767 93.4412 131.278 95.2764 130.541C99.6569 128.779 101.919 125.08 102.078 119.419C102.153 116.729 102.24 116.326 102.898 115.615C103.951 114.48 104.856 114.206 106.282 114.591C107.903 115.029 108.581 114.756 108.994 113.5C109.519 111.905 109.081 109.705 108.029 108.65C107.549 108.168 107.156 107.725 107.156 107.666C107.156 107.606 107.905 107.402 108.821 107.211C110.847 106.789 112.372 105.804 112.744 104.676C112.964 104.008 112.816 103.331 112.022 101.384C111.031 98.9502 111.028 98.9278 111.615 98.2756C112.703 97.0691 114.404 96.4492 117.412 96.1638C120.624 95.8588 121.792 95.292 122.654 93.6192C123.358 92.2538 123.051 91.0668 121.149 87.7997C120.232 86.2248 119.103 84.2454 118.639 83.4006C118.176 82.5559 116.367 79.2894 114.619 76.1418C112.872 72.9938 111.442 70.1346 111.442 69.7878C111.442 68.6267 112.077 67.4628 113.581 65.8677C115.376 63.9635 115.577 63.1832 115.513 58.3658C115.463 54.5049 114.138 42.5057 113.412 39.3209C110.952 28.5485 105.757 20.0394 97.1427 12.6764C89.8444 6.43798 80.4887 2.28988 70.2632 0.757988C66.42 0.18234 58.6426 -0.040362 54.732 0.31289ZM53.8836 164.473C51.8795 165.031 50.7966 165.667 49.2697 167.182C47.2065 169.23 46.438 171.045 46.2846 174.231C46.1659 176.702 46.2256 177.051 47.0822 178.888C48.0794 181.026 49.9681 183.094 51.7625 184.012C52.3773 184.327 53.7902 184.753 54.9025 184.958C58.4815 185.62 61.6812 184.504 64.2616 181.696C66.0547 179.744 66.8183 177.887 66.9772 175.093C67.1468 172.113 66.318 169.76 64.3574 167.657C62.6524 165.828 61.3726 165.02 59.3103 164.469C57.3885 163.956 55.7371 163.957 53.8836 164.473Z" fill="#EDEDED"/>
</svg>
