<svg width="16" height="17" viewBox="0 0 16 17" fill="none" xmlns="http://www.w3.org/2000/svg">
<path d="M13.4401 4.70331C11.5201 1.74331 7.60007 0.863311 4.56007 2.70331C1.60007 4.54331 0.640068 8.54331 2.56007 11.5033L2.72007 11.7433L2.08007 14.1433L4.48007 13.5033L4.72007 13.6633C5.76007 14.2233 6.88007 14.5433 8.00007 14.5433C9.20007 14.5433 10.4001 14.2233 11.4401 13.5833C14.4001 11.6633 15.2801 7.74331 13.4401 4.70331ZM11.7601 10.8633C11.4401 11.3433 11.0401 11.6633 10.4801 11.7433C10.1601 11.7433 9.76007 11.9033 8.16007 11.2633C6.80007 10.6233 5.68007 9.58331 4.88007 8.38331C4.40007 7.82331 4.16007 7.10331 4.08007 6.38331C4.08007 5.74331 4.32007 5.18331 4.72007 4.78331C4.88007 4.62331 5.04007 4.54331 5.20007 4.54331H5.60007C5.76007 4.54331 5.92007 4.54331 6.00007 4.86331C6.16007 5.26331 6.56007 6.22331 6.56007 6.30331C6.64007 6.38331 6.64007 6.54331 6.56007 6.62331C6.64007 6.78331 6.56007 6.94331 6.48007 7.02331C6.40007 7.10331 6.32007 7.26331 6.24007 7.34331C6.08007 7.42331 6.00007 7.58331 6.08007 7.74331C6.40007 8.22331 6.80007 8.70331 7.20007 9.10331C7.68007 9.50331 8.16007 9.82331 8.72007 10.0633C8.88007 10.1433 9.04007 10.1433 9.12007 9.98331C9.20007 9.82331 9.60007 9.42331 9.76007 9.26331C9.92007 9.10331 10.0001 9.10331 10.1601 9.18331L11.4401 9.82331C11.6001 9.90331 11.7601 9.98331 11.8401 10.0633C11.9201 10.3033 11.9201 10.6233 11.7601 10.8633Z" fill="black"/>
</svg>
